<?xml version="1.0" encoding="utf-8"?>
<!-- Generator: Adobe Illustrator 16.0.0, SVG Export Plug-In . SVG Version: 6.00 Build 0)  -->
<!DOCTYPE svg PUBLIC "-//W3C//DTD SVG 1.1//EN" "http://www.w3.org/Graphics/SVG/1.1/DTD/svg11.dtd">
<svg version="1.1" id="Layer_1" xmlns="http://www.w3.org/2000/svg" xmlns:xlink="http://www.w3.org/1999/xlink" x="0px" y="0px"
	 width="300px" height="50px" viewBox="0 0 300 50" enable-background="new 0 0 300 50" xml:space="preserve">
<g>
	<rect fill="#FFD200" width="134" height="50"/>
	<g>
		<path d="M24.397,29.132l6.892-17.229h6.543l-10.88,27.066h-5.11l-10.88-27.066h6.543L24.397,29.132z"/>
		<path d="M58.662,38.969l-2.517-5.849H44.801l-2.517,5.849h-6.428L47.55,11.903h5.846l11.693,27.066H58.662z M50.493,19.957
			l-3.408,7.859h6.776L50.493,19.957z"/>
		<path d="M68.225,11.903h6.04v11.112l10.221-11.112h7.473L81.195,23.867c0.929,1.292,2.645,3.697,5.149,7.221
			c2.503,3.523,4.375,6.148,5.614,7.881h-7.047l-7.936-10.689l-2.71,3.021v7.668h-6.04V11.903z"/>
		<path d="M95.714,11.903h6.04v27.066h-6.04V11.903z"/>
		<path d="M108.413,38.969V11.903h6.04v21.682h11.539v5.384H108.413z"/>
		<path fill="#FFFFFF" d="M149.24,15.466c-1.33,0-2.419,0.27-3.271,0.812c-0.852,0.542-1.278,1.362-1.278,2.458
			c0,1.097,0.426,1.936,1.278,2.516c0.852,0.582,2.665,1.207,5.44,1.878c2.772,0.672,4.864,1.614,6.272,2.826
			c1.405,1.215,2.108,3,2.108,5.362c0,2.361-0.892,4.279-2.672,5.75c-1.781,1.472-4.118,2.207-7.007,2.207
			c-4.234,0-7.989-1.459-11.268-4.375l2.866-3.445c2.735,2.375,5.575,3.562,8.518,3.562c1.47,0,2.638-0.315,3.503-0.949
			c0.863-0.633,1.297-1.473,1.297-2.516c0-1.047-0.407-1.859-1.221-2.439c-0.812-0.582-2.213-1.11-4.2-1.588
			c-1.989-0.478-3.499-0.916-4.531-1.316c-1.032-0.398-1.949-0.922-2.748-1.568c-1.602-1.213-2.401-3.071-2.401-5.575
			c0-2.503,0.91-4.434,2.73-5.789c1.82-1.354,4.071-2.033,6.757-2.033c1.729,0,3.443,0.284,5.148,0.852
			c1.703,0.568,3.174,1.368,4.414,2.4l-2.438,3.446c-0.804-0.721-1.886-1.316-3.254-1.78
			C151.918,15.698,150.568,15.466,149.24,15.466z"/>
		<path fill="#FFFFFF" d="M184.453,11.903V16.2h-14.439v7.163h12.969v4.065h-12.969v7.24h14.904v4.299h-19.477V11.903H184.453z"/>
		<path fill="#FFFFFF" d="M194.598,32.811l-2.709,6.158h-4.879l11.924-27.066h4.879l11.926,27.066h-4.879l-2.709-6.158H194.598z
			 M206.29,28.59l-4.917-11.15l-4.916,11.15H206.29z"/>
		<path fill="#FFFFFF" d="M241.098,20.691c0,4.467-1.949,7.28-5.847,8.44l7.085,9.836h-5.809l-6.465-9.1h-6.002v9.1h-4.568V11.903
			h10.066c4.131,0,7.084,0.697,8.866,2.091C240.207,15.387,241.098,17.62,241.098,20.691z M235.02,24.525
			c0.928-0.801,1.394-2.084,1.394-3.853c0-1.768-0.479-2.981-1.433-3.64c-0.955-0.659-2.658-0.987-5.11-0.987h-5.808v9.68h5.689
			C232.333,25.725,234.09,25.325,235.02,24.525z"/>
		<path fill="#FFFFFF" d="M260.031,34.824c1.572,0,2.928-0.266,4.064-0.795c1.135-0.528,2.321-1.373,3.561-2.534l2.943,3.021
			c-2.863,3.174-6.344,4.762-10.435,4.762c-4.093,0-7.485-1.316-10.185-3.948c-2.696-2.636-4.045-5.964-4.045-9.99
			c0-4.027,1.375-7.383,4.123-10.067s6.221-4.027,10.414-4.027c4.194,0,7.698,1.549,10.514,4.647l-2.904,3.174
			c-1.291-1.239-2.512-2.104-3.658-2.594c-1.148-0.491-2.498-0.736-4.047-0.736c-2.736,0-5.031,0.885-6.891,2.653
			c-1.859,1.768-2.789,4.026-2.789,6.775s0.923,5.047,2.769,6.893C255.312,33.902,257.5,34.824,260.031,34.824z"/>
		<path fill="#FFFFFF" d="M276.175,38.969V11.903h4.568v11.732h13.437V11.903h4.567v27.066h-4.567V27.895h-13.437v11.074H276.175z"
			/>
	</g>
</g>
</svg>
